<?xml version="1.0" encoding="UTF-8" standalone="no"?>
<svg width="283px" height="248px" viewBox="0 0 283 248" version="1.1" xmlns="http://www.w3.org/2000/svg" xmlns:xlink="http://www.w3.org/1999/xlink">
    <title>Ozgur Yazilim Dernegi - Logo</title>
    <desc>Ozgur Yazilim Dernegi</desc>
    <defs></defs>
    <g id="LOGO" stroke="none" stroke-width="1" fill="none" fill-rule="evenodd">
        <g id="UST-KISIM" transform="translate(4.000000, 1.000000)">
            <rect id="ARKAPLAN" fill="#990F06" x="1" y="4" width="273" height="155" rx="5"></rect>
            <path id="OYD" d="M128.175705,145.125749 C123.934924,145.125749 118.197397,140.652695 108.718004,140.652695 C102.980477,140.652695 97.9913232,145.622754 97.9913232,151.586826 C97.9913232,159.787425 105.97397,166 116.451193,166 C133.164859,166 145.138829,152.083832 158.609544,116.299401 L197.02603,14.9101796 C200.019523,6.95808383 203.013015,4.47305389 209,3.72754491 L209,0 L175.32321,0 L175.32321,3.72754491 C183.305857,3.72754491 187.29718,5.96407186 187.29718,9.94011976 C187.29718,10.9341317 187.047722,12.4251497 186.299349,14.1646707 L162.101952,82.751497 L133.414317,19.8802395 C131.91757,16.4011976 130.91974,13.1706587 130.91974,10.4371257 C130.91974,5.96407186 134.661605,4.2245509 145.388286,3.72754491 L145.388286,0 L94,0 L94,3.47904192 C100.4859,4.47305389 104.726681,7.20658683 106.722343,11.4311377 L135.908894,74.5508982 L139.650759,82.005988 C146.635575,94.4311377 150.626898,103.377246 150.626898,107.10479 C150.626898,114.55988 138.403471,145.125749 128.175705,145.125749 Z M241.418103,162 L275,150.1443 L275,146.496392 C270.887931,146.724387 270.431034,146.724387 269.74569,146.724387 C261.521552,146.724387 259.693966,144.21645 259.693966,133.728716 L259.693966,4.45598846 L258.551724,4 C247.586207,7.87590188 239.590517,10.1558442 224.969828,14.031746 L224.969828,17.6796537 C226.797414,17.4516595 228.168103,17.4516595 229.99569,17.4516595 C238.448276,17.4516595 240.50431,19.7316017 240.50431,29.0793651 L240.50431,64.6464646 C231.823276,57.3506494 225.655172,54.8427128 216.517241,54.8427128 C190.24569,54.8427128 169,80.6060606 169,112.981241 C169,142.164502 186.133621,162 211.262931,162 C224.056034,162 232.737069,157.440115 240.50431,146.724387 L240.50431,161.316017 L241.418103,162 Z M220.004405,151 C201.356828,151 189,132.538462 189,104.153846 C189,78.0769231 200.008811,61 217.0837,61 C228.991189,61 240,71.8461538 240,84.0769231 L240,137.153846 C240,141.076923 232.810573,151 220.004405,151 Z M31.1212121,0 C24.8080808,0 19,5.80808081 19,12.3737374 C19,19.4444444 24.3030303,25 31.1212121,25 C38.1919192,25 44,19.4444444 44,12.6262626 C44,5.80808081 38.1919192,0 31.1212121,0 Z M83.1212121,0 C76.8080808,0 71,5.80808081 71,12.3737374 C71,19.4444444 76.3030303,25 83.1212121,25 C90.1919192,25 96,19.4444444 96,12.6262626 C96,5.80808081 90.1919192,0 83.1212121,0 L83.1212121,0 Z M57.6303855,41 C23.7301587,41 0,65.9191489 0,101.740426 C0,136.782979 24.2517007,163 57.1088435,163 C89.9659864,163 115,135.485106 115,99.6638298 C115,65.6595745 91.0090703,41 57.6303855,41 L57.6303855,41 Z M24,89.5772947 C24,65.0241546 36.2452107,49 54.743295,49 C76.6283525,49 92,73.8115942 92,109.219807 C92,138.425121 80.2758621,156 60.7356322,156 C38.3295019,156 24,125.502415 24,89.5772947 L24,89.5772947 Z" stroke="#FFFFFF" fill="#FFFFFF"></path>
        </g>
        <g id="ALT-KISIM" transform="translate(1.000000, 169.000000)">
            <path id="OZGUR-YAZILIM" d="M7.32649999,3.431 C6.05149999,3.431 4.87849999,4.604 4.87849999,5.93 C4.87849999,7.358 5.94949999,8.48 7.32649999,8.48 C8.75449999,8.48 9.92749999,7.358 9.92749999,5.981 C9.92749999,4.604 8.75449999,3.431 7.32649999,3.431 L7.32649999,3.431 Z M17.4755,3.431 C16.2005,3.431 15.0275,4.604 15.0275,5.93 C15.0275,7.358 16.0985,8.48 17.4755,8.48 C18.9035,8.48 20.0765,7.358 20.0765,5.981 C20.0765,4.604 18.9035,3.431 17.4755,3.431 L17.4755,3.431 Z M12.4775,11.54 C5.84749999,11.54 1.20649999,16.436 1.20649999,23.474 C1.20649999,30.359 5.94949999,35.51 12.3755,35.51 C18.8015,35.51 23.6975,30.104 23.6975,23.066 C23.6975,16.385 19.0055,11.54 12.4775,11.54 L12.4775,11.54 Z M5.79649999,20.975 C5.79649999,16.13 8.19349999,12.968 11.8145,12.968 C16.0985,12.968 19.1075,17.864 19.1075,24.851 C19.1075,30.614 16.8125,34.082 12.9875,34.082 C8.60149999,34.082 5.79649999,28.064 5.79649999,20.975 L5.79649999,20.975 Z M39.1995,33.47 L32.1615,33.47 L45.8805,12.815 L45.8805,12.05 L28.1835,12.05 L28.0305,18.068 L28.9485,18.068 C29.4075,14.345 30.1725,13.58 33.2325,13.58 L40.2705,13.58 L26.7045,34.235 L26.7045,35 L45.9315,35 L46.6455,28.115 L45.7275,27.911 C44.9625,31.787 44.6055,33.47 39.1995,33.47 L39.1995,33.47 Z M51.7945,32.246 C51.7945,33.317 52.4065,33.929 54.4975,34.949 C50.8765,37.601 49.4995,39.284 49.4995,41.171 C49.4995,43.874 53.4775,46.118 58.3225,46.118 C62.1475,46.118 66.1255,44.792 68.7775,42.65 C70.7155,41.069 71.5825,39.437 71.5825,37.499 C71.5825,34.337 69.1855,32.195 65.4115,32.042 L58.8325,31.736 C56.1295,31.634 54.8545,31.175 54.8545,30.359 C54.8545,29.339 56.5375,27.554 57.9145,27.146 C58.3735,27.197 58.7305,27.248 58.8835,27.248 C59.8525,27.35 60.5155,27.401 60.8215,27.401 C64.9015,27.401 68.7775,24.392 68.7775,19.496 C68.7775,18.017 68.5225,16.844 67.8085,15.212 L72.0415,15.212 L72.0415,13.223 L68.1145,13.223 C67.0945,13.223 66.3295,13.07 65.3095,12.713 L64.1875,12.305 C62.8105,11.795 61.4335,11.54 60.1075,11.54 C55.3645,11.54 51.5905,15.212 51.5905,19.853 C51.5905,23.066 52.9675,25.004 56.3335,26.687 C52.3045,30.461 51.7945,30.92 51.7945,32.246 L51.7945,32.246 Z M55.5685,35.102 C57.2515,35.459 61.3315,35.765 63.8305,35.765 C68.4715,35.765 70.1545,36.428 70.1545,38.264 C70.1545,41.222 66.2785,43.211 60.5155,43.211 C56.0275,43.211 53.0695,41.732 53.0695,39.488 C53.0695,38.315 53.4265,37.652 55.5685,35.102 L55.5685,35.102 Z M64.8505,21.485 C64.8505,24.341 63.3715,26.126 61.0255,26.126 C57.9655,26.126 55.8235,22.811 55.8235,17.915 L55.8235,17.762 C55.8235,14.753 57.2515,12.968 59.5975,12.968 C64.0855,12.968 64.8505,19.802 64.8505,21.485 L64.8505,21.485 Z M80.3015,3.329 C79.0265,3.329 77.8535,4.502 77.8535,5.828 C77.8535,7.256 78.9245,8.378 80.3015,8.378 C81.7295,8.378 82.9025,7.256 82.9025,5.879 C82.9025,4.502 81.7295,3.329 80.3015,3.329 L80.3015,3.329 Z M90.4505,3.329 C89.1755,3.329 88.0025,4.502 88.0025,5.828 C88.0025,7.256 89.0735,8.378 90.4505,8.378 C91.8785,8.378 93.0515,7.256 93.0515,5.879 C93.0515,4.502 91.8785,3.329 90.4505,3.329 L90.4505,3.329 Z M98.1005,32.45 L97.8455,32.45 C95.4995,32.45 94.9385,31.889 94.9385,29.543 L94.9385,12.05 L86.8805,12.05 L86.8805,12.917 C90.0425,13.07 90.6545,13.58 90.6545,16.13 L90.6545,28.115 C90.6545,29.543 90.3995,30.257 89.6855,30.818 C88.3085,31.94 86.7275,32.552 85.1975,32.552 C83.2085,32.552 81.5765,30.818 81.5765,28.676 L81.5765,12.05 L74.1305,12.05 L74.1305,12.764 C76.5785,12.917 77.2925,13.682 77.2925,16.028 L77.2925,28.88 C77.2925,32.909 79.7405,35.51 83.4635,35.51 C85.3505,35.51 87.3395,34.694 88.7165,33.317 L90.9095,31.124 L90.9095,35.357 L91.1135,35.459 C93.6635,34.439 95.4995,33.878 98.1005,33.164 L98.1005,32.45 Z M114.3675,16.538 C115.5915,16.538 116.3565,15.671 116.3565,14.243 C116.3565,12.56 115.2855,11.54 113.5515,11.54 C111.4095,11.54 109.9305,12.713 107.4315,16.334 L107.4315,11.642 L107.1765,11.54 C104.4735,12.662 102.6375,13.325 99.6285,14.294 L99.6285,15.11 C100.3425,14.957 100.8015,14.906 101.4135,14.906 C102.6885,14.906 103.1475,15.722 103.1475,17.966 L103.1475,30.716 C103.1475,33.266 102.7905,33.623 99.5265,34.235 L99.5265,35 L111.7665,35 L111.7665,34.235 C108.2985,34.082 107.4315,33.317 107.4315,30.41 L107.4315,18.935 C107.4315,17.303 109.6245,14.753 111.0015,14.753 C111.8175,14.753 112.9905,16.538 114.3675,16.538 L114.3675,16.538 Z M136.9055,41.834 C136.0385,41.834 134.8655,40.916 132.9275,40.916 C131.7545,40.916 130.7345,41.936 130.7345,43.16 C130.7345,44.843 132.3665,46.118 134.5085,46.118 C137.9255,46.118 140.3735,43.262 143.1275,35.918 L150.9815,15.11 C151.5935,13.478 152.2055,12.968 153.4295,12.815 L153.4295,12.05 L146.5445,12.05 L146.5445,12.815 C148.1765,12.815 148.9925,13.274 148.9925,14.09 C148.9925,14.294 148.9415,14.6 148.7885,14.957 L143.8415,29.033 L137.9765,16.13 C137.6705,15.416 137.4665,14.753 137.4665,14.192 C137.4665,13.274 138.2315,12.917 140.4245,12.815 L140.4245,12.05 L129.9185,12.05 L129.9185,12.764 C131.2445,12.968 132.1115,13.529 132.5195,14.396 L138.4865,27.35 L139.2515,28.88 C140.6795,31.43 141.4955,33.266 141.4955,34.031 C141.4955,35.561 138.9965,41.834 136.9055,41.834 L136.9055,41.834 Z M155.0595,30.053 C155.0595,33.266 157.3035,35.51 160.4145,35.51 C162.6585,35.51 164.7495,34.439 167.8605,31.787 C168.1155,34.439 169.0335,35.51 171.1245,35.51 C172.8585,35.51 173.9295,34.898 175.7145,32.96 L175.7145,31.634 C174.8475,32.348 174.2355,32.603 173.4705,32.603 C172.2975,32.603 171.9405,31.889 171.9405,29.645 L171.9405,19.7 C171.9405,14.6 170.5125,11.54 164.5965,11.54 C159.8025,11.54 156.0285,14.039 156.0285,17.252 C156.0285,18.425 157.0485,19.445 158.2215,19.445 C159.4455,19.445 160.5165,18.425 160.5165,17.303 C160.5165,16.844 160.2615,15.977 160.2615,15.263 C160.2615,13.886 161.8935,12.764 163.9335,12.764 C166.4325,12.764 167.8095,14.243 167.8095,16.997 L167.8095,20.108 C161.4855,22.658 155.0595,24.545 155.0595,30.053 L155.0595,30.053 Z M167.8095,28.727 C167.8095,30.308 167.5545,30.767 166.4835,31.379 C165.2595,32.093 163.8315,32.552 162.7605,32.552 C160.9755,32.552 159.5475,30.818 159.5475,28.625 L159.5475,28.421 C159.5475,25.412 161.6385,23.576 167.8095,21.332 L167.8095,28.727 Z M189.7885,33.47 L182.7505,33.47 L196.4695,12.815 L196.4695,12.05 L178.7725,12.05 L178.6195,18.068 L179.5375,18.068 C179.9965,14.345 180.7615,13.58 183.8215,13.58 L190.8595,13.58 L177.2935,34.235 L177.2935,35 L196.5205,35 L197.2345,28.115 L196.3165,27.911 C195.5515,31.787 195.1945,33.47 189.7885,33.47 L189.7885,33.47 Z M201.8225,14.906 C203.0465,14.906 203.5055,15.722 203.5055,17.966 L203.5055,29.798 C203.5055,33.47 202.9955,34.031 199.4765,34.235 L199.4765,35 L211.5635,35 L211.5635,34.235 C208.1975,33.98 207.7895,33.47 207.7895,29.798 L207.7895,11.693 L207.5855,11.54 L199.6805,14.345 L199.6805,15.11 C200.4455,15.008 201.3635,14.906 201.8225,14.906 L201.8225,14.906 Z M213.9075,3.227 L214.2135,3.227 C214.7745,3.176 215.3865,3.125 215.7945,3.125 C217.4265,3.125 217.9365,3.839 217.9365,6.236 L217.9365,30.563 C217.9365,33.317 217.2225,33.98 214.0095,34.235 L214.0095,35 L226.0455,35 L226.0455,34.235 C222.8325,34.031 222.2205,33.521 222.2205,30.716 L222.2205,0.269 L222.0165,0.167 C219.3645,1.034 217.4265,1.544 213.9075,2.411 L213.9075,3.227 Z M230.3785,14.906 C231.6025,14.906 232.0615,15.722 232.0615,17.966 L232.0615,29.798 C232.0615,33.47 231.5515,34.031 228.0325,34.235 L228.0325,35 L240.1195,35 L240.1195,34.235 C236.7535,33.98 236.3455,33.47 236.3455,29.798 L236.3455,11.693 L236.1415,11.54 L228.2365,14.345 L228.2365,15.11 C229.0015,15.008 229.9195,14.906 230.3785,14.906 L230.3785,14.906 Z M242.4635,14.702 C243.1265,14.549 243.5345,14.498 244.0955,14.498 C245.4215,14.498 245.8805,15.314 245.8805,17.762 L245.8805,30.665 C245.8805,33.419 245.1665,34.184 242.3105,34.235 L242.3105,35 L253.6325,35 L253.6325,34.235 C250.9295,34.133 250.1645,33.572 250.1645,31.583 L250.1645,17.201 C250.1645,17.099 250.5725,16.589 250.9295,16.232 C252.2045,15.059 254.3975,14.192 256.1825,14.192 C258.4265,14.192 259.5485,15.977 259.5485,19.547 L259.5485,30.614 C259.5485,33.47 258.9875,34.031 256.0805,34.235 L256.0805,35 L267.5045,35 L267.5045,34.235 C264.5975,34.184 263.8325,33.317 263.8325,30.155 L263.8325,17.303 C265.3625,15.11 267.0455,14.192 269.3915,14.192 C272.2985,14.192 273.2165,15.569 273.2165,19.802 L273.2165,30.563 C273.2165,33.47 272.8085,33.878 269.8505,34.235 L269.8505,35 L281.0195,35 L281.0195,34.235 L279.6935,34.133 C278.1635,34.031 277.5005,33.113 277.5005,31.124 L277.5005,20.618 C277.5005,14.6 275.5115,11.54 271.5845,11.54 C268.6265,11.54 266.0255,12.866 263.2715,15.824 C262.3535,12.917 260.6195,11.54 257.8655,11.54 C255.6215,11.54 254.1935,12.254 249.9605,15.467 L249.9605,11.642 L249.6035,11.54 C247.0025,12.509 245.2685,13.07 242.4635,13.835 L242.4635,14.702 Z" fill="#990F06"></path>
            <path id="CIZGI" d="M0.747340426,50.5 L280.25266,50.5" stroke="#000000" stroke-linecap="square"></path>
            <path id="DERNEGI" d="M8.224,74.21 L11.311,73.118 L11.311,72.782 C10.933,72.803 10.891,72.803 10.828,72.803 C10.072,72.803 9.904,72.572 9.904,71.606 L9.904,59.699 L9.799,59.657 C8.791,60.014 8.056,60.224 6.712,60.581 L6.712,60.917 C6.88,60.896 7.006,60.896 7.174,60.896 C7.951,60.896 8.14,61.106 8.14,61.967 L8.14,65.243 C7.342,64.571 6.775,64.34 5.935,64.34 C3.52,64.34 1.567,66.713 1.567,69.695 C1.567,72.383 3.142,74.21 5.452,74.21 C6.628,74.21 7.426,73.79 8.14,72.803 L8.14,74.147 L8.224,74.21 Z M6.271,73.118 C4.528,73.118 3.373,71.438 3.373,68.855 C3.373,66.482 4.402,64.928 5.998,64.928 C7.111,64.928 8.14,65.915 8.14,67.028 L8.14,71.858 C8.14,72.215 7.468,73.118 6.271,73.118 L6.271,73.118 Z M49.537,68.183 L56.005,68.183 C55.69,65.642 54.577,64.34 52.414,64.34 C49.873,64.34 48.025,66.377 48.025,69.506 C48.025,72.404 49.537,74.21 51.952,74.21 C53.947,74.21 55.522,72.971 56.404,70.703 L56.068,70.556 C55.06,72.152 54.157,72.761 52.813,72.761 C51.448,72.761 49.663,71.921 49.537,68.183 L49.537,68.183 Z M49.579,67.511 C49.81,65.873 50.524,65.096 51.805,65.096 C53.086,65.096 53.59,65.684 53.863,67.511 L49.579,67.511 Z M99.04,66.398 C99.544,66.398 99.859,66.041 99.859,65.453 C99.859,64.76 99.418,64.34 98.704,64.34 C97.822,64.34 97.213,64.823 96.184,66.314 L96.184,64.382 L96.079,64.34 C94.966,64.802 94.21,65.075 92.971,65.474 L92.971,65.81 C93.265,65.747 93.454,65.726 93.706,65.726 C94.231,65.726 94.42,66.062 94.42,66.986 L94.42,72.236 C94.42,73.286 94.273,73.433 92.929,73.685 L92.929,74 L97.969,74 L97.969,73.685 C96.541,73.622 96.184,73.307 96.184,72.11 L96.184,67.385 C96.184,66.713 97.087,65.663 97.654,65.663 C97.99,65.663 98.473,66.398 99.04,66.398 L99.04,66.398 Z M136.615,65.642 C136.741,65.579 136.951,65.558 137.182,65.558 C137.77,65.558 137.959,65.873 137.959,66.902 L137.959,72.11 C137.959,73.307 137.728,73.601 136.657,73.685 L136.657,74 L141.109,74 L141.109,73.685 C140.038,73.601 139.723,73.349 139.723,72.593 L139.723,66.692 C140.731,65.747 141.193,65.495 141.886,65.495 C142.915,65.495 143.419,66.146 143.419,67.532 L143.419,71.921 C143.419,73.244 143.146,73.601 142.096,73.685 L142.096,74 L146.464,74 L146.464,73.685 C145.435,73.58 145.183,73.328 145.183,72.299 L145.183,67.49 C145.183,65.516 144.259,64.34 142.705,64.34 C141.739,64.34 141.088,64.697 139.66,66.041 L139.66,64.382 L139.513,64.34 C138.484,64.718 137.77,64.949 136.615,65.285 L136.615,65.642 Z M184.816,68.183 L191.284,68.183 C190.969,65.642 189.856,64.34 187.693,64.34 C185.152,64.34 183.304,66.377 183.304,69.506 C183.304,72.404 184.816,74.21 187.231,74.21 C189.226,74.21 190.801,72.971 191.683,70.703 L191.347,70.556 C190.339,72.152 189.436,72.761 188.092,72.761 C186.727,72.761 184.942,71.921 184.816,68.183 L184.816,68.183 Z M184.858,67.511 C185.089,65.873 185.803,65.096 187.084,65.096 C188.365,65.096 188.869,65.684 189.142,67.511 L184.858,67.511 Z M235.705,60.035 C235.117,61.631 234.592,62.072 233.374,62.072 C232.03,62.072 231.316,61.442 231.022,60.035 L230.413,60.035 C230.476,62.723 232.051,63.332 233.332,63.332 C235.096,63.332 236.062,62.261 236.314,60.035 L235.705,60.035 Z M229.636,72.866 C229.636,73.307 229.888,73.559 230.749,73.979 C229.258,75.071 228.691,75.764 228.691,76.541 C228.691,77.654 230.329,78.578 232.324,78.578 C233.899,78.578 235.537,78.032 236.629,77.15 C237.427,76.499 237.784,75.827 237.784,75.029 C237.784,73.727 236.797,72.845 235.243,72.782 L232.534,72.656 C231.421,72.614 230.896,72.425 230.896,72.089 C230.896,71.669 231.589,70.934 232.156,70.766 C232.345,70.787 232.492,70.808 232.555,70.808 C232.954,70.85 233.227,70.871 233.353,70.871 C235.033,70.871 236.629,69.632 236.629,67.616 C236.629,67.007 236.524,66.524 236.23,65.852 L237.973,65.852 L237.973,65.033 L236.356,65.033 C235.936,65.033 235.621,64.97 235.201,64.823 L234.739,64.655 C234.172,64.445 233.605,64.34 233.059,64.34 C231.106,64.34 229.552,65.852 229.552,67.763 C229.552,69.086 230.119,69.884 231.505,70.577 C229.846,72.131 229.636,72.32 229.636,72.866 L229.636,72.866 Z M231.19,74.042 C231.883,74.189 233.563,74.315 234.592,74.315 C236.503,74.315 237.196,74.588 237.196,75.344 C237.196,76.562 235.6,77.381 233.227,77.381 C231.379,77.381 230.161,76.772 230.161,75.848 C230.161,75.365 230.308,75.092 231.19,74.042 L231.19,74.042 Z M235.012,68.435 C235.012,69.611 234.403,70.346 233.437,70.346 C232.177,70.346 231.295,68.981 231.295,66.965 L231.295,66.902 C231.295,65.663 231.883,64.928 232.849,64.928 C234.697,64.928 235.012,67.742 235.012,68.435 L235.012,68.435 Z M275.905,65.726 C276.409,65.726 276.598,66.062 276.598,66.986 L276.598,71.858 C276.598,73.37 276.388,73.601 274.939,73.685 L274.939,74 L279.916,74 L279.916,73.685 C278.53,73.58 278.362,73.37 278.362,71.858 L278.362,64.403 L278.278,64.34 L275.023,65.495 L275.023,65.81 C275.338,65.768 275.716,65.726 275.905,65.726 L275.905,65.726 Z M277.291,59.657 C276.724,59.657 276.241,60.14 276.241,60.728 C276.241,61.316 276.703,61.799 277.291,61.799 C277.9,61.799 278.383,61.337 278.383,60.728 C278.383,60.14 277.9,59.657 277.291,59.657 L277.291,59.657 Z" fill="#797979"></path>
        </g>
    </g>
</svg>
